<svg id="图层_1" data-name="图层 1" xmlns="http://www.w3.org/2000/svg" viewBox="0 0 135.35 94.5"><defs><style>.cls-1{fill:#5276b0;}.cls-2{fill:#e9f2ff;}</style></defs><title>没有问卷</title><path class="cls-1" d="M55.1,114.87c4.5.25,4.5.25,4.5-4.2V47.22C59.6,39.92,63.55,36,70.85,36h50c7.3,0,11.25,4,11.25,11.25,0,6.1,0,12.15-.05,18.25a2.27,2.27,0,0,0,1.5,2.45c5.5,2.7,8.5,7.2,8.5,13.3s-2.95,10.6-8.5,13.3A2.14,2.14,0,0,0,132,97a20,20,0,0,1,0,3c-.15,2.6-.5,4.9,3.5,5,2.6,0,3.85,2.65,4.6,5a11.55,11.55,0,0,1-1.15,5h8.15c1,0,2.3-.2,2.35,1.15.05,1.6-1.4,1.3-2.45,1.3H35.5a1.23,1.23,0,0,1-1.4-1.15c-.05-.95.55-1.35,1.4-1.35,1.85,0,3.65,0,5.5,0C45.75,114.92,50.45,114.92,55.1,114.87Zm7-35.6c0,11.1,0,22.15-.05,33.25,0,1.45.25,2,1.9,2,8.6-.1,17.15,0,25.75,0,.7,0,1.45.2,2-.55,1.5-2,3.25-3.85,1.6-6.85-1.25-2.3-.9-2.55,1.85-2.55h28.25c2,0,4.65.65,5.75-.4,1.35-1.2.2-3.9.45-6,.2-1.65-.2-2.25-2.1-2.2a14.68,14.68,0,1,1,0-29.35c1.9,0,2.15-.6,2.1-2.25-.1-5.75,0-11.5,0-17.25s-3-8.6-8.65-8.6H70.75c-5.7,0-8.65,2.9-8.65,8.6Zm65.35-10.8a12.73,12.73,0,1,0,12.65,12.8,12.82,12.82,0,0,0-12.65-12.8ZM94.2,115h33c2.15,0,4.35,0,6.5,0a3.94,3.94,0,0,0,3.95-4c0-2.2-1.65-3.75-4-4H97.9a2.11,2.11,0,0,0-1.85.45c2,2.85-.2,5-1.85,7.55Zm22.3,15.5H74.8c-.65,0-1.35,0-2-.05a1.2,1.2,0,0,1,0-2.4c.6-.05,1.15-.05,1.75-.05h83.9c.6,0,1.15,0,1.75.05a1.25,1.25,0,0,1,1.3,1.25,1.18,1.18,0,0,1-1.3,1.2Zm-45.3-7H52c-1,0-2.25.2-2.3-1.2s1.2-1.3,2.2-1.3H90.8c1,0,2.25-.1,2.2,1.3s-1.35,1.2-2.35,1.2Z" transform="translate(-29.2 -35.97)"/><path class="cls-1" d="M42.2,130.47h-11c-.95,0-2,.05-2.05-1.2s1-1.3,1.95-1.3h22.4c1,0,2,.05,2,1.3s-1.15,1.2-2.1,1.2Zm82.75-7h-10.2c-1,0-2,0-2-1.2s1-1.3,2-1.3h20.9c.95,0,2,.1,1.95,1.35s-1.15,1.2-2.1,1.15Z" transform="translate(-29.2 -35.97)"/><path class="cls-1" d="M159.7,117.42c-1,0-2.15,0-3.2,0a1.34,1.34,0,0,1-1.35-1.45,1.31,1.31,0,0,1,1.35-1.45c2.25,0,4.45,0,6.7,0a1.31,1.31,0,0,1,1.35,1.45,1.34,1.34,0,0,1-1.35,1.45c-1.15,0-2.3,0-3.5,0Zm-56.2,6c-1,0-2.15,0-3.2,0a1.19,1.19,0,0,1-1.15-1.1,1.07,1.07,0,0,1,.95-1.25c2.3-.1,4.6-.1,7,0a1.13,1.13,0,0,1,1,1.2,1.08,1.08,0,0,1-1,1.15c-1.2.1-2.35,0-3.55,0Z" transform="translate(-29.2 -35.97)"/><path class="cls-2" d="M62.1,79.27V47c0-5.65,2.95-8.6,8.65-8.6H121c5.7,0,8.6,2.9,8.65,8.6s-.05,11.5,0,17.25c0,1.6-.2,2.25-2.1,2.25a14.68,14.68,0,1,0,0,29.35c1.9,0,2.3.55,2.1,2.2-.25,2.05.9,4.75-.45,6-1.1,1-3.8.35-5.75.4H95.2c-2.75,0-3.1.25-1.85,2.55,1.65,3-.1,4.8-1.6,6.85-.55.8-1.35.55-2,.55-8.6,0-17.15-.05-25.75,0-1.6,0-1.9-.5-1.9-2C62.15,101.47,62.1,90.37,62.1,79.27Zm34.5-30.8H70.85c-2.85,0-4.3,1.05-4.25,3.05S68,54.42,71,54.47H121.7c3,0,4.35-.95,4.35-2.95s-1.4-3.05-4.5-3.05ZM89.85,63h-19c-2.8,0-4.3,1.1-4.25,3s1.45,3,4.15,3H109c2.7,0,4-1,4.1-3s-1.4-3-4.25-3ZM83,85h12.5c2,0,3.45-.8,3.6-3,.15-1.85-1.3-3-3.7-3-8.35,0-16.65,0-25,0-2.4,0-3.8,1.2-3.75,3s1.4,3,3.85,3Z" transform="translate(-29.2 -35.97)"/><path class="cls-2" d="M127.45,68.47A12.73,12.73,0,1,1,114.55,81a12.93,12.93,0,0,1,12.9-12.55Zm5.6,8c-.6-.85-.75-1.2-1-1.35-.4-.3-.8-.05-1.1.25-1.25,1.2-2.45,3.15-3.85,3.35s-2.5-2.15-3.8-3.25c-.5-.4-1-.75-1.5-.1-.4.5-.1.95.25,1.3a27.74,27.74,0,0,0,2.1,2.1c1.4,1.1,1.75,2,.1,3.25a20,20,0,0,0-2.3,2.3c-.4.4-.55.85-.1,1.3s.9.25,1.3-.1.7-.7,1.1-1c2.8-2.75,2.8-2.75,5.55-.1.4.4.85.8,1.25,1.2a.82.82,0,0,0,1.3,0,.78.78,0,0,0-.1-1.1,20,20,0,0,0-2.3-2.3c-1.7-1.25-1.45-2.3.1-3.45,1-.7,2-1.45,3-2.2ZM94.2,115c1.7-2.55,3.85-4.7,1.8-7.5a2.28,2.28,0,0,1,1.85-.45h35.7a4,4,0,0,1,0,8c-2.15.1-4.35,0-6.5,0H96.9c-.75,0-1.55,0-2.7,0Z" transform="translate(-29.2 -35.97)"/><path class="cls-1" d="M96.6,48.47h25c3.05,0,4.55,1,4.5,3.05s-1.45,2.9-4.35,2.95H71c-3,0-4.35-.95-4.35-2.95s1.4-3.05,4.25-3.05Zm-.5,4h25c.65,0,1.35,0,2,0a.92.92,0,0,0,1-1,1,1,0,0,0-.9-1c-.6,0-1.15,0-1.75,0H71.45a13.4,13.4,0,0,0-2,.1.93.93,0,0,0,0,1.8,13.07,13.07,0,0,0,2,.1C79.6,52.47,87.85,52.47,96.1,52.47ZM89.85,63h19c2.85,0,4.3,1,4.25,3s-1.45,3-4.1,3H70.75c-2.7,0-4.1-1-4.15-3s1.4-3,4.25-3Zm0,4h19c.85,0,2.15.3,2.1-1s-1.3-1-2.15-1H70.85c-.85,0-2.15-.3-2.1,1s1.3,1,2.15,1C77.2,67,83.55,67,89.85,67ZM83,85H70.45c-2.45,0-3.8-1.1-3.85-3s1.35-3,3.75-3h25c2.4,0,3.85,1.2,3.7,3-.2,2.15-1.6,3-3.6,3Zm-.1-2H95.1c.8,0,1.9.2,1.9-1s-1.1-1-1.9-1H70.65c-.8,0-1.9-.2-1.9,1s1.1,1,1.9,1Z" transform="translate(-29.2 -35.97)"/><path class="cls-1" d="M133.05,76.47l-3,2.25c-1.5,1.1-1.75,2.2-.1,3.45a20,20,0,0,1,2.3,2.3c.3.35.45.75.1,1.1a.79.79,0,0,1-1.3.05c-.45-.4-.85-.8-1.25-1.2-2.7-2.7-2.7-2.7-5.55.1-.35.35-.7.7-1.1,1s-.85.6-1.3.1-.25-.9.1-1.3a20,20,0,0,1,2.3-2.3c1.65-1.2,1.3-2.15-.1-3.25a16.66,16.66,0,0,1-2.1-2.1c-.35-.35-.7-.8-.25-1.3.5-.65,1-.3,1.5.1,1.35,1.1,2.3,3.4,3.8,3.25s2.55-2.15,3.85-3.35a.86.86,0,0,1,1.1-.25c.25.15.4.45,1,1.3Z" transform="translate(-29.2 -35.97)"/><path class="cls-2" d="M96.1,52.47H71.35a13.4,13.4,0,0,1-2-.1.88.88,0,0,1-.7-.9.92.92,0,0,1,.7-.9,13.07,13.07,0,0,1,2-.1h50c.6,0,1.15,0,1.75.05a.89.89,0,0,1,.9,1,.92.92,0,0,1-1,.95c-.65.05-1.35.05-2,.05C112.75,52.47,104.4,52.47,96.1,52.47ZM89.85,67h-19c-.85,0-2.15.35-2.15-1s1.25-1,2.1-1h38c.85,0,2.15-.35,2.15,1s-1.25,1-2.1,1C102.5,67,96.2,67,89.85,67Zm-7,16H70.6c-.8,0-1.9.2-1.9-1s1.1-1,1.9-1H95.05c.8,0,1.9-.2,1.9,1s-1.1,1-1.9,1Z" transform="translate(-29.2 -35.97)"/></svg>