<?xml version="1.0" standalone="no"?><!DOCTYPE svg PUBLIC "-//W3C//DTD SVG 1.1//EN" "http://www.w3.org/Graphics/SVG/1.1/DTD/svg11.dtd"><svg class="icon" width="200px" height="200.00px" viewBox="0 0 1024 1024" version="1.1" xmlns="http://www.w3.org/2000/svg"><path d="M304.911802 499.610864l162.765433 161.589729 415.263605-412.950124a47.87516 47.87516 0 0 1 67.444938 0 47.243062 47.243062 0 0 1 0 67.065679L501.127901 762.096198a47.432691 47.432691 0 0 1-67.444938 0L237.150815 566.967309a47.432691 47.432691 0 0 1-12.22479-45.903013 47.774025 47.774025 0 0 1 33.741432-33.60237 47.533827 47.533827 0 0 1 46.244345 12.136296z m715.877136-40.947358v-0.088494A944.861235 944.861235 0 0 1 1024 510.685235c0 277.718914-229.085235 503.656296-510.697877 503.656296S2.528395 788.467358 2.528395 510.735802C2.528395 233.016889 231.626272 7.079506 513.238914 7.079506a514.88237 514.88237 0 0 1 281.031111 83.247408c16.409284 11.124938 20.770765 33.172543 9.784889 49.556543-10.985877 16.384-33.248395 21.061531-50.062223 10.518123a442.317432 442.317432 0 0 0-241.006617-71.174321c-241.335309 0-437.564049 193.510716-437.564049 431.533827 0 238.010469 196.203457 431.546469 437.538765 431.54647s437.564049-193.510716 437.56405-431.533828a419.195259 419.195259 0 0 0-2.23763-44.80316c-1.845728-19.632988 12.692543-37.040988 32.57837-39.063704 19.885827-1.997432 37.685728 12.16158 39.923358 31.744z" fill="#0CB46A" /></svg>